<svg xmlns="http://www.w3.org/2000/svg" xmlns:xlink="http://www.w3.org/1999/xlink" id="Capa_1" x="0px" y="0px" width="858.1px" height="347.7px" viewBox="0 0 858.1 347.7" style="enable-background:new 0 0 858.1 347.7;" xml:space="preserve"><rect x="-436.9" y="173.7" style="fill:#FFFFFF;" width="195" height="188"></rect><image style="overflow:visible;" width="297" height="100" transform="matrix(1 0 0 1 -794.1058 -203.8154)"></image><g>	<text transform="matrix(0.9675 0 0 1 -825.8402 316.5005)"><tspan x="0" y="0" style="font-family:'AvenirNextLTPro-Regular'; font-size:54.2676px;">A</tspan><tspan x="38" y="0" style="font-family:'AvenirNextLTPro-Regular'; font-size:54.2676px;">r</tspan><tspan x="56.9" y="0" style="font-family:'AvenirNextLTPro-Regular'; font-size:54.2676px;">tista Plástica</tspan></text>	<path style="fill:#040006;" d="M-812.1,242.1c0.8,2.8,2.6,4.9,7.4,4.9c4.2,0,5.5-1.5,5.5-3.6c0-2.3-1.2-3.6-8-5  c-13.5-2.8-15.4-8.1-15.4-13.7c0-8.4,6.8-13.3,16.8-13.3c12.2,0,17,6.6,17.5,12.9h-11.5c-0.4-1.9-1.4-4.1-6-4.1  c-3.2,0-4.7,1.2-4.7,3.2c0,2,1.5,2.9,7.2,4.1c13.8,2.9,16.5,7.9,16.5,14.4c0,8.1-5.9,14-18.3,14c-12.3,0-17.7-6.1-18.8-13.8H-812.1  z"></path>	<path style="fill:#040006;" d="M-768.6,212v43h-13.1v-43H-768.6z"></path>	<path style="fill:#040006;" d="M-763.1,211.7h12.7v33.2h19.2l0.2,10h-32V211.7z"></path>	<path style="fill:#040006;" d="M-713.1,230.5l4.8-18.7h12.4l-12.5,43.2h-14.1l-12.3-43.2h12.5l5.2,19.4l2.1,7L-713.1,230.5z"></path>	<path style="fill:#040006;" d="M-680.3,211.7v43.2h-11.9v-43.2H-680.3z"></path>	<path style="fill:#040006;" d="M-659.9,248.4l-2.3,6.5h-13.5l13.8-43.2h15.5l14.7,43.2h-14.3l-2.5-6.5H-659.9z M-649.9,240.1  c-2.1-6.6-3.3-10.7-4.1-13.8h-0.2c-0.7,3-2.1,8.2-3.8,13.8H-649.9z"></path>	<path style="fill:#040006;" d="M-597.9,228.8l-0.1,12v14.1h-11.1v-43.2h17.8c2.5,9.7,4.9,20.3,6,27.6h0.1  c1.5-7.6,3.9-17.7,6.5-27.6h17.7v43.2h-12.1v-14.6l-0.3-10.7l-6.2,25.2H-590L-597.9,228.8z"></path>	<path style="fill:#040006;" d="M-505.4,221.7h-12.1v-10h35.9v10h-12v33.2h-11.9V221.7z"></path>	<path style="fill:#040006;" d="M-542.3,249.2l-2.3,6.5h-13.5l13.8-43.2h15.5l14.7,43.2h-14.3l-2.5-6.5H-542.3z M-532.3,240.8  c-2.1-6.6-3.3-10.7-4.1-13.8h-0.2c-0.7,3-2.1,8.2-3.8,13.8H-532.3z"></path></g><g>	<path style="fill:#040006;" d="M-407.3,247.3c0.6,2.2,2.1,3.9,5.9,3.9c3.4,0,4.4-1.2,4.4-2.9c0-1.8-0.9-2.9-6.4-4  c-10.7-2.2-12.3-6.5-12.3-10.9c0-6.7,5.4-10.6,13.4-10.6c9.7,0,13.6,5.2,13.9,10.2h-9.2c-0.3-1.5-1.2-3.2-4.8-3.2  c-2.6,0-3.8,1-3.8,2.6c0,1.6,1.2,2.3,5.7,3.3c11,2.3,13.1,6.3,13.1,11.4c0,6.5-4.7,11.2-14.5,11.2c-9.8,0-14.1-4.8-15-10.9H-407.3z  "></path>	<path style="fill:#040006;" d="M-372.7,223.3v34.2h-10.4v-34.2H-372.7z"></path>	<path style="fill:#040006;" d="M-368.3,223.1h10.1v26.4h15.3l0.1,8h-25.5V223.1z"></path>	<path style="fill:#040006;" d="M-328.5,238l3.8-14.9h9.8l-10,34.4H-336l-9.8-34.4h10l4.1,15.4l1.7,5.6L-328.5,238z"></path>	<path style="fill:#040006;" d="M-302.4,223.1v34.4h-9.5v-34.4H-302.4z"></path>	<path style="fill:#040006;" d="M-286.2,252.3l-1.8,5.2h-10.7l11-34.4h12.3l11.7,34.4h-11.4l-2-5.2H-286.2z M-278.2,245.7  c-1.6-5.2-2.6-8.5-3.2-11h-0.1c-0.5,2.4-1.7,6.5-3,11H-278.2z"></path>	<path style="fill:#040006;" d="M-399.7,283.7l-0.2,14.1v16.5h-13v-50.6h20.8c2.9,11.4,5.7,23.8,7,32.3h0.1  c1.7-8.9,4.6-20.8,7.6-32.3h20.7v50.6h-14.2v-17l-0.3-12.5l-7.3,29.5h-11.9L-399.7,283.7z"></path>	<path style="fill:#040006;" d="M-291.4,275.4h-14.1v-11.7h42.1v11.7h-14v38.9h-13.9V275.4z"></path>	<path style="fill:#040006;" d="M-334.6,307.6l-2.7,7.6h-15.8l16.2-50.6h18.1l17.2,50.6h-16.8l-2.9-7.6H-334.6z M-322.9,297.8  c-2.4-7.7-3.8-12.6-4.8-16.1h-0.2c-0.8,3.5-2.4,9.6-4.4,16.1H-322.9z"></path></g><g>	<text transform="matrix(0.9675 0 0 1 33.1016 299.5503)"><tspan x="0" y="0" style="fill:#FFFFFF; font-family:'AvenirNextLTPro-Regular'; font-size:124.8934px;">A</tspan><tspan x="87.4" y="0" style="fill:#FFFFFF; font-family:'AvenirNextLTPro-Regular'; font-size:124.8934px; letter-spacing:-1;">r</tspan><tspan x="130.9" y="0" style="fill:#FFFFFF; font-family:'AvenirNextLTPro-Regular'; font-size:124.8934px;">tista Plástica</tspan></text>	<path style="fill:#FFFFFF;" d="M64.6,128.4c1.8,6.5,6.1,11.4,17.1,11.4c9.7,0,12.7-3.4,12.7-8.3c0-5.2-2.7-8.3-18.5-11.5  c-31.1-6.3-35.5-18.7-35.5-31.6C40.4,69,56.1,57.6,79,57.6c28,0,39.2,15.1,40.3,29.6H92.8c-1-4.4-3.3-9.4-13.8-9.4  c-7.4,0-10.9,2.8-10.9,7.4c0,4.5,3.5,6.6,16.6,9.4c31.8,6.6,38,18.3,38,33c0,18.7-13.5,32.3-42.1,32.3c-28.2,0-40.8-13.9-43.3-31.7  H64.6z"></path>	<path style="fill:#FFFFFF;" d="M164.8,59v98.9h-30.1V59H164.8z"></path>	<path style="fill:#FFFFFF;" d="M177.4,58.4h29.1v76.4h44.2l0.4,23h-73.7V58.4z"></path>	<path style="fill:#FFFFFF;" d="M292.6,101.5l11.1-43.1h28.5l-28.8,99.4h-32.4l-28.2-99.4h28.8l12,44.6l4.9,16.2L292.6,101.5z"></path>	<path style="fill:#FFFFFF;" d="M368,58.4v99.4h-27.4V58.4H368z"></path>	<path style="fill:#FFFFFF;" d="M415.1,142.9l-5.3,15h-31l31.8-99.4h35.6l33.9,99.4h-32.9l-5.7-15H415.1z M438,123.6  c-4.8-15.1-7.5-24.7-9.3-31.7h-0.4c-1.6,7-4.8,18.9-8.7,31.7H438z"></path>	<path style="fill:#FFFFFF;" d="M557.7,97.7l-0.3,27.7v32.4h-25.5V58.4h40.9c5.7,22.4,11.2,46.8,13.7,63.6h0.2  c3.4-17.6,9-40.8,14.9-63.6h40.7v99.4h-27.8v-33.5l-0.6-24.5l-14.4,58.1h-23.5L557.7,97.7z"></path>	<path style="fill:#FFFFFF;" d="M770.5,81.3h-27.8V58.4h82.7v22.9h-27.6v76.5h-27.3V81.3z"></path>	<path style="fill:#FFFFFF;" d="M685.6,144.6l-5.3,15h-31l31.8-99.4h35.6l33.9,99.4h-32.9l-5.7-15H685.6z M708.6,125.4  c-4.8-15.1-7.5-24.7-9.3-31.7h-0.4c-1.6,7-4.8,18.9-8.7,31.7H708.6z"></path></g></svg>