<svg xmlns="http://www.w3.org/2000/svg" xmlns:xlink="http://www.w3.org/1999/xlink" id="Capa_1" x="0px" y="0px" width="858.1px" height="347.7px" viewBox="0 0 858.1 347.7" style="enable-background:new 0 0 858.1 347.7;" xml:space="preserve"><rect x="-436.9" y="173.7" style="fill:#FFFFFF;" width="195" height="188"></rect><image style="overflow:visible;" width="297" height="100" transform="matrix(1 0 0 1 -794.1058 -203.8154)"></image><g>	<text transform="matrix(0.9675 0 0 1 -825.8402 316.5005)"><tspan x="0" y="0" style="font-family:'AvenirNextLTPro-Regular'; font-size:54.2676px;">A</tspan><tspan x="38" y="0" style="font-family:'AvenirNextLTPro-Regular'; font-size:54.2676px;">r</tspan><tspan x="56.9" y="0" style="font-family:'AvenirNextLTPro-Regular'; font-size:54.2676px;">tista Plástica</tspan></text>	<path style="fill:#040006;" d="M-812.1,242.1c0.8,2.8,2.6,4.9,7.4,4.9c4.2,0,5.5-1.5,5.5-3.6c0-2.3-1.2-3.6-8-5  c-13.5-2.8-15.4-8.1-15.4-13.7c0-8.4,6.8-13.3,16.8-13.3c12.2,0,17,6.6,17.5,12.9h-11.5c-0.4-1.9-1.4-4.1-6-4.1  c-3.2,0-4.7,1.2-4.7,3.2c0,2,1.5,2.9,7.2,4.1c13.8,2.9,16.5,7.9,16.5,14.4c0,8.1-5.9,14-18.3,14c-12.3,0-17.7-6.1-18.8-13.8H-812.1  z"></path>	<path style="fill:#040006;" d="M-768.6,212v43h-13.1v-43H-768.6z"></path>	<path style="fill:#040006;" d="M-763.1,211.7h12.7v33.2h19.2l0.2,10h-32V211.7z"></path>	<path style="fill:#040006;" d="M-713.1,230.5l4.8-18.7h12.4l-12.5,43.2h-14.1l-12.3-43.2h12.5l5.2,19.4l2.1,7L-713.1,230.5z"></path>	<path style="fill:#040006;" d="M-680.3,211.7v43.2h-11.9v-43.2H-680.3z"></path>	<path style="fill:#040006;" d="M-659.9,248.4l-2.3,6.5h-13.5l13.8-43.2h15.5l14.7,43.2h-14.3l-2.5-6.5H-659.9z M-649.9,240.1  c-2.1-6.6-3.3-10.7-4.1-13.8h-0.2c-0.7,3-2.1,8.2-3.8,13.8H-649.9z"></path>	<path style="fill:#040006;" d="M-597.9,228.8l-0.1,12v14.1h-11.1v-43.2h17.8c2.5,9.7,4.9,20.3,6,27.6h0.1  c1.5-7.6,3.9-17.7,6.5-27.6h17.7v43.2h-12.1v-14.6l-0.3-10.7l-6.2,25.2H-590L-597.9,228.8z"></path>	<path style="fill:#040006;" d="M-505.4,221.7h-12.1v-10h35.9v10h-12v33.2h-11.9V221.7z"></path>	<path style="fill:#040006;" d="M-542.3,249.2l-2.3,6.5h-13.5l13.8-43.2h15.5l14.7,43.2h-14.3l-2.5-6.5H-542.3z M-532.3,240.8  c-2.1-6.6-3.3-10.7-4.1-13.8h-0.2c-0.7,3-2.1,8.2-3.8,13.8H-532.3z"></path></g><g>	<path style="fill:#040006;" d="M-407.3,247.3c0.6,2.2,2.1,3.9,5.9,3.9c3.4,0,4.4-1.2,4.4-2.9c0-1.8-0.9-2.9-6.4-4  c-10.7-2.2-12.3-6.5-12.3-10.9c0-6.7,5.4-10.6,13.4-10.6c9.7,0,13.6,5.2,13.9,10.2h-9.2c-0.3-1.5-1.2-3.2-4.8-3.2  c-2.6,0-3.8,1-3.8,2.6c0,1.6,1.2,2.3,5.7,3.3c11,2.3,13.1,6.3,13.1,11.4c0,6.5-4.7,11.2-14.5,11.2c-9.8,0-14.1-4.8-15-10.9H-407.3z  "></path>	<path style="fill:#040006;" d="M-372.7,223.3v34.2h-10.4v-34.2H-372.7z"></path>	<path style="fill:#040006;" d="M-368.3,223.1h10.1v26.4h15.3l0.1,8h-25.5V223.1z"></path>	<path style="fill:#040006;" d="M-328.5,238l3.8-14.9h9.8l-10,34.4H-336l-9.8-34.4h10l4.1,15.4l1.7,5.6L-328.5,238z"></path>	<path style="fill:#040006;" d="M-302.4,223.1v34.4h-9.5v-34.4H-302.4z"></path>	<path style="fill:#040006;" d="M-286.2,252.3l-1.8,5.2h-10.7l11-34.4h12.3l11.7,34.4h-11.4l-2-5.2H-286.2z M-278.2,245.7  c-1.6-5.2-2.6-8.5-3.2-11h-0.1c-0.5,2.4-1.7,6.5-3,11H-278.2z"></path>	<path style="fill:#040006;" d="M-399.7,283.7l-0.2,14.1v16.5h-13v-50.6h20.8c2.9,11.4,5.7,23.8,7,32.3h0.1  c1.7-8.9,4.6-20.8,7.6-32.3h20.7v50.6h-14.2v-17l-0.3-12.5l-7.3,29.5h-11.9L-399.7,283.7z"></path>	<path style="fill:#040006;" d="M-291.4,275.4h-14.1v-11.7h42.1v11.7h-14v38.9h-13.9V275.4z"></path>	<path style="fill:#040006;" d="M-334.6,307.6l-2.7,7.6h-15.8l16.2-50.6h18.1l17.2,50.6h-16.8l-2.9-7.6H-334.6z M-322.9,297.8  c-2.4-7.7-3.8-12.6-4.8-16.1h-0.2c-0.8,3.5-2.4,9.6-4.4,16.1H-322.9z"></path></g><g>	<g>		<path style="fill:#FFFFFF;" d="M33.9,290.6h-9.5l37-88.4h8.5l36.7,88.4h-9.7l-9.4-23.2H43.2L33.9,290.6z M46.4,259.1h37.7   l-18.9-47L46.4,259.1z"></path>		<path style="fill:#FFFFFF;" d="M118.1,232.1h7.9c0.2,3.1,0.5,7.5,0.5,10h0.2c3.1-6.7,10.2-11.5,18.1-11.5c2.1,0,3.7,0.1,5.4,0.6   l-1.1,8c-1-0.4-3.6-0.7-5.8-0.7c-8.7,0-16.6,6.5-16.6,22.1v30h-8.2V245C118.6,241.8,118.4,236.1,118.1,232.1z"></path>		<path style="fill:#FFFFFF;" d="M186.1,239.2h-16v34.1c0,8.7,3.5,10.7,8.5,10.7c2.3,0,5-0.8,7.1-1.9l0.4,7.4   c-2.9,1.1-5.9,1.7-9.7,1.7c-6,0-14.5-2.7-14.5-15.6v-36.5h-11.7v-7.1h11.7v-16.5h8.2v16.5h16V239.2z"></path>		<path style="fill:#FFFFFF;" d="M203.1,215.6c-2.9,0-5.8-2.5-5.8-6s2.9-6,5.8-6c2.9,0,5.8,2.5,5.8,6S206,215.6,203.1,215.6z    M207.2,290.6H199v-58.5h8.2V290.6z"></path>		<path style="fill:#FFFFFF;" d="M259.2,246c-2.4-4.9-7.6-8.2-13.9-8.2c-5.9,0-12,2.6-12,9.1c0,5.5,4.2,8,13.5,10   c13.3,2.9,19.6,8,19.6,17.1c0,13.4-10.9,18.1-21.3,18.1c-8.6,0-17.2-3.5-22.4-11.4l6.5-5c2.9,5.1,9.1,9.1,15.7,9.1   c7,0,13.3-2.6,13.3-10.2c0-6.1-5.9-8.6-16.7-11.2c-6.6-1.6-16.2-4.6-16.2-15.7c0-11.9,9.9-17,20.2-17c7.9,0,16.2,3.9,19.8,10.5   L259.2,246z"></path>		<path style="fill:#FFFFFF;" d="M308.3,239.2h-16v34.1c0,8.7,3.5,10.7,8.5,10.7c2.3,0,5-0.8,7.1-1.9l0.4,7.4   c-2.9,1.1-5.9,1.7-9.7,1.7c-6,0-14.5-2.7-14.5-15.6v-36.5h-11.7v-7.1h11.7v-16.5h8.2v16.5h16V239.2z"></path>		<path style="fill:#FFFFFF;" d="M356.7,252.8c0-10.1-5.3-15.1-15.1-15.1c-6.6,0-12.8,2.7-16.8,6.9l-4.6-5.6   c4.6-4.7,12.6-8.4,22.2-8.4c12.2,0,22,7,22,21.2v25.6c0,4.5,0.4,9.9,1,13.1H358c-0.5-2.9-0.8-6.4-0.8-9.5h-0.2   c-5.2,7.7-11.5,11-20.5,11c-8.6,0-19.6-4.7-19.6-17.7c0-18,19.2-19.6,39.9-19.6V252.8z M354.3,261.3c-13.4,0-29,1.5-29,12.6   c0,8.4,6.9,11.1,13.3,11.1c11.6,0,18.1-9,18.1-19.4v-4.4H354.3z"></path>		<path style="fill:#FFFFFF;" d="M416.3,202.1h24.2c17.4,0,28.9,7.7,28.9,23.6c0,15.9-11.7,23.7-29.1,23.7H425v41.1h-8.7V202.1z    M425,241.8h14.7c13.5,0,20.9-5.6,20.9-16.1c0-10.9-7.7-15.9-20.9-15.9H425V241.8z"></path>		<path style="fill:#FFFFFF;" d="M494.3,290.6h-8.2v-94.4h8.2V290.6z"></path>		<path style="fill:#FFFFFF;" d="M552,252.8c0-10.1-5.3-15.1-15.1-15.1c-6.6,0-12.8,2.7-16.8,6.9l-4.6-5.6   c4.6-4.7,12.6-8.4,22.2-8.4c12.2,0,22,7,22,21.2v25.6c0,4.5,0.4,9.9,1,13.1h-7.4c-0.5-2.9-0.8-6.4-0.8-9.5h-0.2   c-5.2,7.7-11.5,11-20.5,11c-8.6,0-19.6-4.7-19.6-17.7c0-18,19.2-19.6,39.9-19.6V252.8z M549.5,261.3c-13.4,0-29,1.5-29,12.6   c0,8.4,6.9,11.1,13.3,11.1c11.6,0,18.1-9,18.1-19.4v-4.4H549.5z M538.6,220.1h-7.1l12.1-18h11L538.6,220.1z"></path>		<path style="fill:#FFFFFF;" d="M610.9,246c-2.4-4.9-7.6-8.2-13.9-8.2c-5.9,0-12,2.6-12,9.1c0,5.5,4.2,8,13.5,10   c13.3,2.9,19.6,8,19.6,17.1c0,13.4-10.9,18.1-21.3,18.1c-8.6,0-17.2-3.5-22.4-11.4l6.5-5c2.9,5.1,9.1,9.1,15.7,9.1   c7,0,13.3-2.6,13.3-10.2c0-6.1-5.9-8.6-16.7-11.2c-6.6-1.6-16.2-4.6-16.2-15.7c0-11.9,9.9-17,20.2-17c7.9,0,16.2,3.9,19.8,10.5   L610.9,246z"></path>		<path style="fill:#FFFFFF;" d="M660,239.2h-16v34.1c0,8.7,3.5,10.7,8.5,10.7c2.3,0,5-0.8,7.1-1.9l0.4,7.4   c-2.9,1.1-5.9,1.7-9.7,1.7c-6,0-14.5-2.7-14.5-15.6v-36.5h-11.7v-7.1h11.7v-16.5h8.2v16.5h16V239.2z"></path>		<path style="fill:#FFFFFF;" d="M677,215.6c-2.9,0-5.8-2.5-5.8-6s2.9-6,5.8-6c2.9,0,5.8,2.5,5.8,6S679.9,215.6,677,215.6z    M681.1,290.6h-8.2v-58.5h8.2V290.6z"></path>		<path style="fill:#FFFFFF;" d="M743.7,245.5c-2.7-4.5-8.3-7.7-14.5-7.7c-13.2,0-21.6,10.2-21.6,23.6c0,13.2,8.3,23.5,21.5,23.5   c7.1,0,12.1-3.1,15.3-7.6l6.2,4.7c-4.8,6.1-11.7,10.1-21.5,10.1c-18.2,0-30.2-13.1-30.2-30.7c0-17.6,12-30.7,30.2-30.7   c7.6,0,16.2,3.4,21,10.1L743.7,245.5z"></path>		<path style="fill:#FFFFFF;" d="M799.1,252.8c0-10.1-5.3-15.1-15.1-15.1c-6.6,0-12.8,2.7-16.8,6.9l-4.6-5.6   c4.6-4.7,12.6-8.4,22.2-8.4c12.2,0,22,7,22,21.2v25.6c0,4.5,0.4,9.9,1,13.1h-7.4c-0.5-2.9-0.8-6.4-0.8-9.5h-0.2   c-5.2,7.7-11.5,11-20.5,11c-8.6,0-19.6-4.7-19.6-17.7c0-18,19.2-19.6,39.9-19.6V252.8z M796.6,261.3c-13.4,0-29,1.5-29,12.6   c0,8.4,6.9,11.1,13.3,11.1c11.6,0,18.1-9,18.1-19.4v-4.4H796.6z"></path>	</g>	<path style="fill:#FFFFFF;" d="M54.6,119.4c1.8,6.5,6.1,11.4,17.1,11.4c9.7,0,12.7-3.4,12.7-8.3c0-5.2-2.7-8.3-18.5-11.5  c-31.1-6.3-35.5-18.7-35.5-31.6C30.4,60,46.1,48.6,69,48.6c28,0,39.2,15.1,40.3,29.6H82.8c-1-4.4-3.3-9.4-13.8-9.4  c-7.4,0-10.9,2.8-10.9,7.4c0,4.5,3.5,6.6,16.6,9.4c31.8,6.6,38,18.3,38,33c0,18.7-13.5,32.3-42.1,32.3c-28.2,0-40.8-13.9-43.3-31.7  H54.6z"></path>	<path style="fill:#FFFFFF;" d="M154.8,50v98.9h-30.1V50H154.8z"></path>	<path style="fill:#FFFFFF;" d="M167.4,49.4h29.1v76.4h44.2l0.4,23h-73.7V49.4z"></path>	<path style="fill:#FFFFFF;" d="M282.6,92.5l11.1-43.1h28.5l-28.8,99.4h-32.4l-28.2-99.4h28.8l12,44.6l4.9,16.2L282.6,92.5z"></path>	<path style="fill:#FFFFFF;" d="M358,49.4v99.4h-27.4V49.4H358z"></path>	<path style="fill:#FFFFFF;" d="M405.1,133.9l-5.3,15h-31l31.8-99.4h35.6l33.9,99.4h-32.9l-5.7-15H405.1z M428,114.6  c-4.8-15.1-7.5-24.7-9.3-31.7h-0.4c-1.6,7-4.8,18.9-8.7,31.7H428z"></path>	<path style="fill:#FFFFFF;" d="M547.7,88.7l-0.3,27.7v32.4h-25.5V49.4h40.9c5.7,22.4,11.2,46.8,13.7,63.6h0.2  c3.4-17.6,9-40.8,14.9-63.6h40.7v99.4h-27.8v-33.5l-0.6-24.5l-14.4,58.1h-23.5L547.7,88.7z"></path>	<path style="fill:#FFFFFF;" d="M760.5,72.3h-27.8V49.4h82.7v22.9h-27.6v76.5h-27.3V72.3z"></path>	<path style="fill:#FFFFFF;" d="M675.6,135.6l-5.3,15h-31l31.8-99.4h35.6l33.9,99.4h-32.9l-5.7-15H675.6z M698.6,116.4  c-4.8-15.1-7.5-24.7-9.3-31.7h-0.4c-1.6,7-4.8,18.9-8.7,31.7H698.6z"></path></g></svg>